<svg id="Layer_1" enable-background="new 0 0 512 512" height="512" viewBox="0 0 512 512" width="512" xmlns="http://www.w3.org/2000/svg"><path d="m310.448 398.78h-133.046c-2.632 0-5.086-1.33-6.523-3.535-1.438-2.205-1.664-4.987-.602-7.396l30.983-70.286c1.245-2.824 4.04-4.647 7.125-4.647h73.794c3.179 0 6.038 1.932 7.224 4.882l28.268 70.286c.966 2.4.676 5.123-.772 7.267-1.447 2.144-3.865 3.429-6.451 3.429zm-124.535-7.789 116.204.155-28.305-70.377-56.928-.034z" fill="#838383"/><g clip-rule="evenodd" fill-rule="evenodd"><path d="m185.083 309.167c-12.06-67.423-78.466-103.529-78.466-178.255 0-71.483 62.083-129.412 138.651-129.412 76.597 0 138.681 57.929 138.681 129.412 0 74.726-66.405 110.833-78.466 178.255-2.278 12.824-6.804 11.568-20.763 11.568h-39.452-39.423c-13.958 0-18.484 1.256-20.762-11.568z" fill="#03bed7"/><path d="m119.378 428.091v36.457c0 5.288 4.322 9.582 9.578 9.582h30.253l25.698-32.981-25.698-32.952h-19.916c-10.95.001-19.915 8.94-19.915 19.894z" fill="#ececec"/><path d="m305.921 441.149 21.726 32.981h30.253c5.256 0 9.549-4.294 9.549-9.582v-36.457c0-10.955-8.936-19.894-19.887-19.894h-19.916z" fill="#ececec"/><path d="m192.938 510.5h100.952c18.573-.029 33.758-15.132 33.758-33.741v-2.629-44.286h-168.438v44.286 2.629c0 18.609 15.156 33.712 33.728 33.741z" fill="#ffd659"/><path d="m159.21 429.844h168.438v-21.647c0-9.465-7.739-17.206-17.2-17.206h-133.045c-9.987 0-18.193 6.865-18.193 17.206z" fill="#03bed7"/><path d="m309.454 390.991h-32.473c9.461 0 17.2 7.741 17.2 17.206v21.647h19.186 14.28v-21.647c0-9.465-7.739-17.206-17.2-17.206z" fill="#0099b1"/><path d="m294.182 429.844v44.286 2.629c0 18.579-15.127 33.653-33.641 33.741h33.349.088.058c8.381-.029 16.061-3.155 21.96-8.296 7.125-6.193 11.652-15.307 11.652-25.444v-2.629-44.286h-14.28-19.186z" fill="#ffbf00"/><path d="m119.378 448.832v15.716c0 5.288 4.322 9.582 9.578 9.582h30.253v-15.746h-30.253c-5.256.001-9.578-4.293-9.578-9.552z" fill="#cecece"/><path d="m357.901 458.385h-30.253v15.746h30.253c5.256 0 9.549-4.294 9.549-9.582v-15.716c0 5.258-4.293 9.552-9.549 9.552z" fill="#cecece"/><path d="m219.016 320.735c-2.657-75.106-35.714-110.949-35.714-189.823 0-71.483 27.742-129.412 61.967-129.412 34.254 0 61.996 57.929 61.996 129.412 0 78.874-34.254 95.584-35.743 189.823z" fill="#fe636e"/><path d="m383.949 130.912c0-71.483-62.084-129.412-138.681-129.412 6.57 0 12.907 2.133 18.835 6.076 55.98 16.651 96.542 65.582 96.542 123.335 0 74.726-66.376 110.833-78.437 178.255-1.635 9.027-4.351 11.072-10.659 11.51 0 0-.029.029-.029.058h13.199c13.959 0 18.485 1.256 20.763-11.568 12.061-67.422 78.467-103.528 78.467-178.254z" fill="#0099b1"/><path d="m41.905 102.196c-23.741 3.827-41.905 24.421-41.905 49.281 0 3.447.35 6.807.993 10.049 4.672 22.727 24.763 39.846 48.884 39.846 23.332 0 38.05-.672 63.106-.672 21.113 0 38.226-17.089 38.226-38.21 0-13.263-6.775-24.948-17.025-31.813-.438-20.712-17.375-37.392-38.196-37.392-10.863 0-20.675 4.528-27.654 11.831-5.694-2.279-11.944-3.535-18.456-3.535-2.717.001-5.374.206-7.973.615z" fill="#a6e7f0"/><path d="m108.895 128.458c0 34.003-22.135 62.865-52.797 72.885 19.887-.088 34.137-.643 56.886-.643 21.113 0 38.226-17.089 38.226-38.21 0-13.263-6.775-24.948-17.025-31.813-.409-19.193-14.981-34.909-33.67-37.129 5.372 10.459 8.38 22.348 8.38 34.91z" fill="#6bd9e7"/><path d="m394.608 114.319c-25.464 0-46.168 20.39-46.723 45.747-12.528 8.355-20.792 22.669-20.792 38.882 0 25.824 20.909 46.74 46.723 46.74 20.704 0 35.656.351 51.98.584 7.826.117 15.974.204 25.201.204 13.345 0 25.669-4.265 35.714-11.539 15.331-11.1 25.289-29.124 25.289-49.456 0-24.334-14.251-45.367-34.838-55.153-7.943-3.768-16.791-5.872-26.165-5.872-7.972 0-15.594 1.519-22.602 4.323-6.979-7.332-16.324-12.386-26.807-13.964-2.279-.321-4.615-.496-6.98-.496z" fill="#a6e7f0"/><path d="m447.989 124.514c5.782 11.802 9.023 25.064 9.023 39.086 0 29.972-14.835 56.497-37.583 72.593-5.49 3.885-11.418 7.128-17.726 9.699 8.264.117 16.003.263 24.092.38 7.826.117 15.974.204 25.201.204 13.345 0 25.669-4.265 35.714-11.539 15.332-11.1 25.29-29.124 25.29-49.456 0-24.334-14.251-45.367-34.838-55.153-7.943-3.768-16.791-5.872-26.165-5.872-1.022 0-2.015.029-3.008.058z" fill="#6bd9e7"/></g></svg>